<?xml version="1.0" encoding="UTF-8"?>
<svg id="Layer_1" data-name="Layer 1" xmlns="http://www.w3.org/2000/svg" viewBox="0 0 2880.0517578 2593.4506164">
  <path d="m0,177.6227218C0,70.3494684,70.2825725.0655023,177.5558259.0655023h147.9641173c107.2732534,0,188.6535876,59.1862044,247.839792,162.7606684l821.1981335,1450.0466773c-22.1941298-184.9561919-33.2918916-369.9109901-33.2918916-510.4775287V177.6227218C1361.2659771,70.3494684,1431.5485495.0655023,1538.8231966.0655023h170.1582471c107.2732534,0,177.5558259,70.2839661,177.5558259,177.5572195v2226.8551575c0,107.2732534-70.2825725,177.5558259-177.5558259,177.5558259h-147.9641173c-107.2732534,0-192.3537706-59.1862044-251.5385813-162.7606684L491.9794009,976.6267255c18.4953405,184.9547982,33.2918916,366.2094134,33.2918916,503.0785564v924.7725975c0,107.2732534-70.2839661,177.5558259-177.5572195,177.5558259h-170.1582471c-107.2732534,0-177.5558259-70.2825725-177.5558259-177.5558259V177.6227218Z"/>
  <path d="m1726.9555531,0c303.3258134,0,562.3664984,181.6406607,625.2514921,418.3826909l521.5738968,1979.0153655c25.8915255,99.8756747-29.5931022,196.05256-144.2667216,196.05256h-177.5558259c-107.2732534,0-181.2546152-73.9813618-207.148928-177.5558259l-122.0711981-484.5804286-735.5378512.9978648m628.2645978-437.4940317l-251.5371877-1013.5505104c-7.3975787-36.9906809-29.5931022-62.8849938-62.8849938-62.8849938-36.9906809,0-55.487415,25.8943128-62.8849938,62.8849938l-251.5371877,1013.5505104h628.8443629Z"/>
</svg>